<svg version="1.1" id="sharing-caring" xmlns="http://www.w3.org/2000/svg" xmlns:xlink="http://www.w3.org/1999/xlink" x="0px" y="0px" viewBox="0 0 1000 1000" style="enable-background:new 0 0 1000 1000;" xml:space="preserve">
	<path d="M876.2,785.4c6.1-3.2,12-6.2,23.8-6.2v-5c-13.1,0-19.7,3.4-26.2,6.8c-6.1,3.2-12,6.2-23.8,6.2s-17.7-3-23.8-6.2
	c-6.4-3.3-13-6.8-26.2-6.8s-19.7,3.4-26.2,6.8c-6.1,3.2-12,6.2-23.8,6.2s-17.7-3-23.8-6.2c-6.4-3.3-13-6.8-26.2-6.8
	s-19.7,3.4-26.2,6.8c-6.1,3.2-12,6.2-23.8,6.2s-17.7-3-23.8-6.2c-6.4-3.3-13-6.8-26.2-6.8s-19.7,3.4-26.2,6.8
	c-6.1,3.2-12,6.2-23.8,6.2s-17.7-3-23.8-6.2c-6.4-3.3-13-6.8-26.2-6.8c-13.1,0-19.7,3.4-26.2,6.8c-6.1,3.2-12,6.2-23.8,6.2
	s-17.7-3-23.8-6.2c-6.4-3.3-13-6.8-26.2-6.8s-19.7,3.4-26.2,6.8c-6.1,3.2-12,6.2-23.8,6.2s-17.7-3-23.8-6.2
	c-6.4-3.3-13-6.8-26.2-6.8s-19.7,3.4-26.2,6.8c-6.1,3.2-12,6.2-23.8,6.2s-17.7-3-23.8-6.2c-6.4-3.3-13-6.8-26.2-6.8
	s-19.7,3.4-26.2,6.8c-6.1,3.2-12,6.2-23.8,6.2s-17.7-3-23.8-6.2c-6.4-3.3-13-6.8-26.2-6.8v5c11.9,0,17.7,3,23.8,6.2
	c6.4,3.3,13,6.8,26.2,6.8s19.7-3.4,26.2-6.8c6.1-3.2,12-6.2,23.8-6.2s17.7,3,23.8,6.2c6.4,3.3,13,6.8,26.2,6.8s19.7-3.4,26.2-6.8
	c6.1-3.2,12-6.2,23.8-6.2s17.7,3,23.8,6.2c6.4,3.3,13,6.8,26.2,6.8s19.7-3.4,26.2-6.8c6.1-3.2,12-6.2,23.8-6.2s17.7,3,23.8,6.2
	c6.4,3.3,13,6.8,26.2,6.8s19.7-3.4,26.2-6.8c6.1-3.2,12-6.2,23.8-6.2c11.9,0,17.7,3,23.8,6.2c6.4,3.3,13,6.8,26.2,6.8
	s19.7-3.4,26.2-6.8c6.1-3.2,12-6.2,23.8-6.2s17.7,3,23.8,6.2c6.4,3.3,13,6.8,26.2,6.8s19.7-3.4,26.2-6.8c6.1-3.2,12-6.2,23.8-6.2
	s17.7,3,23.8,6.2c6.4,3.3,13,6.8,26.2,6.8s19.7-3.4,26.2-6.8c6.1-3.2,12-6.2,23.8-6.2s17.7,3,23.8,6.2c6.4,3.3,13,6.8,26.2,6.8
	S869.7,788.7,876.2,785.4z M876.2,818c6.1-3.2,12-6.2,23.8-6.2v-5c-13.1,0-19.7,3.4-26.2,6.8c-6.1,3.2-12,6.2-23.8,6.2
	s-17.7-3-23.8-6.2c-6.4-3.3-13-6.8-26.2-6.8s-19.7,3.4-26.2,6.8c-6.1,3.2-12,6.2-23.8,6.2s-17.7-3-23.8-6.2
	c-6.4-3.3-13-6.8-26.2-6.8s-19.7,3.4-26.2,6.8c-6.1,3.2-12,6.2-23.8,6.2s-17.7-3-23.8-6.2c-6.4-3.3-13-6.8-26.2-6.8
	s-19.7,3.4-26.2,6.8c-6.1,3.2-12,6.2-23.8,6.2s-17.7-3-23.8-6.2c-6.4-3.3-13-6.8-26.2-6.8c-13.1,0-19.7,3.4-26.2,6.8
	c-6.1,3.2-12,6.2-23.8,6.2s-17.7-3-23.8-6.2c-6.4-3.3-13-6.8-26.2-6.8s-19.7,3.4-26.2,6.8c-6.1,3.2-12,6.2-23.8,6.2
	s-17.7-3-23.8-6.2c-6.4-3.3-13-6.8-26.2-6.8s-19.7,3.4-26.2,6.8c-6.1,3.2-12,6.2-23.8,6.2s-17.7-3-23.8-6.2
	c-6.4-3.3-13-6.8-26.2-6.8s-19.7,3.4-26.2,6.8c-6.1,3.2-12,6.2-23.8,6.2s-17.7-3-23.8-6.2c-6.4-3.3-13-6.8-26.2-6.8v5
	c11.9,0,17.7,3,23.8,6.2c6.4,3.3,13,6.8,26.2,6.8s19.7-3.4,26.2-6.8c6.1-3.2,12-6.2,23.8-6.2s17.7,3,23.8,6.2
	c6.4,3.3,13,6.8,26.2,6.8s19.7-3.4,26.2-6.8c6.1-3.2,12-6.2,23.8-6.2s17.7,3,23.8,6.2c6.4,3.3,13,6.8,26.2,6.8s19.7-3.4,26.2-6.8
	c6.1-3.2,12-6.2,23.8-6.2s17.7,3,23.8,6.2c6.4,3.3,13,6.8,26.2,6.8s19.7-3.4,26.2-6.8c6.1-3.2,12-6.2,23.8-6.2
	c11.9,0,17.7,3,23.8,6.2c6.4,3.3,13,6.8,26.2,6.8s19.7-3.4,26.2-6.8c6.1-3.2,12-6.2,23.8-6.2s17.7,3,23.8,6.2
	c6.4,3.3,13,6.8,26.2,6.8s19.7-3.4,26.2-6.8c6.1-3.2,12-6.2,23.8-6.2s17.7,3,23.8,6.2c6.4,3.3,13,6.8,26.2,6.8s19.7-3.4,26.2-6.8
	c6.1-3.2,12-6.2,23.8-6.2s17.7,3,23.8,6.2c6.4,3.3,13,6.8,26.2,6.8S869.7,821.4,876.2,818z M876.2,850.6c6.1-3.2,12-6.2,23.8-6.2v-5
	c-13.1,0-19.7,3.4-26.2,6.8c-6.1,3.2-12,6.2-23.8,6.2s-17.7-3-23.8-6.2c-6.4-3.3-13-6.8-26.2-6.8s-19.7,3.4-26.2,6.8
	c-6.1,3.2-12,6.2-23.8,6.2s-17.7-3-23.8-6.2c-6.4-3.3-13-6.8-26.2-6.8s-19.7,3.4-26.2,6.8c-6.1,3.2-12,6.2-23.8,6.2
	s-17.7-3-23.8-6.2c-6.4-3.3-13-6.8-26.2-6.8s-19.7,3.4-26.2,6.8c-6.1,3.2-12,6.2-23.8,6.2s-17.7-3-23.8-6.2
	c-6.4-3.3-13-6.8-26.2-6.8c-13.1,0-19.7,3.4-26.2,6.8c-6.1,3.2-12,6.2-23.8,6.2s-17.7-3-23.8-6.2c-6.4-3.3-13-6.8-26.2-6.8
	s-19.7,3.4-26.2,6.8c-6.1,3.2-12,6.2-23.8,6.2s-17.7-3-23.8-6.2c-6.4-3.3-13-6.8-26.2-6.8s-19.7,3.4-26.2,6.8
	c-6.1,3.2-12,6.2-23.8,6.2s-17.7-3-23.8-6.2c-6.4-3.3-13-6.8-26.2-6.8s-19.7,3.4-26.2,6.8c-6.1,3.2-12,6.2-23.8,6.2
	s-17.7-3-23.8-6.2c-6.4-3.3-13-6.8-26.2-6.8v5c11.9,0,17.7,3,23.8,6.2c6.4,3.3,13,6.8,26.2,6.8s19.7-3.4,26.2-6.8
	c6.1-3.2,12-6.2,23.8-6.2s17.7,3,23.8,6.2c6.4,3.3,13,6.8,26.2,6.8s19.7-3.4,26.2-6.8c6.1-3.2,12-6.2,23.8-6.2s17.7,3,23.8,6.2
	c6.4,3.3,13,6.8,26.2,6.8s19.7-3.4,26.2-6.8c6.1-3.2,12-6.2,23.8-6.2s17.7,3,23.8,6.2c6.4,3.3,13,6.8,26.2,6.8s19.7-3.4,26.2-6.8
	c6.1-3.2,12-6.2,23.8-6.2c11.9,0,17.7,3,23.8,6.2c6.4,3.3,13,6.8,26.2,6.8s19.7-3.4,26.2-6.8c6.1-3.2,12-6.2,23.8-6.2
	s17.7,3,23.8,6.2c6.4,3.3,13,6.8,26.2,6.8s19.7-3.4,26.2-6.8c6.1-3.2,12-6.2,23.8-6.2s17.7,3,23.8,6.2c6.4,3.3,13,6.8,26.2,6.8
	s19.7-3.4,26.2-6.8c6.1-3.2,12-6.2,23.8-6.2s17.7,3,23.8,6.2c6.4,3.3,13,6.8,26.2,6.8S869.7,854,876.2,850.6z M123.8,687.6
	c-6.1-3.2-12-6.2-23.8-6.2v-5c13.1,0,19.7,3.4,26.2,6.8c6.1,3.2,12,6.2,23.8,6.2s17.7-3,23.8-6.2c6.4-3.3,13-6.8,26.2-6.8
	s19.7,3.4,26.2,6.8c6.1,3.2,12,6.2,23.8,6.2s17.7-3,23.8-6.2c6.4-3.3,13-6.8,26.2-6.8s19.7,3.4,26.2,6.8c6.1,3.2,12,6.2,23.8,6.2
	s17.7-3,23.8-6.2c0.2-0.1,0.4-0.2,0.6-0.3c-0.9,2-1.4,4.2-1.6,6.4c-5.5,2.7-11.9,5.1-22.8,5.1c-13.1,0-19.7-3.4-26.2-6.8
	c-6.1-3.2-12-6.2-23.8-6.2s-17.7,3-23.8,6.2c-6.4,3.3-13,6.8-26.2,6.8s-19.7-3.4-26.2-6.8c-6.1-3.2-12-6.2-23.8-6.2
	s-17.7,3-23.8,6.2c-6.4,3.3-13,6.8-26.2,6.8S130.3,690.9,123.8,687.6z M123.8,655c-6.1-3.2-12-6.2-23.8-6.2v-5
	c13.1,0,19.7,3.4,26.2,6.8c6.1,3.2,12,6.2,23.8,6.2s17.7-3,23.8-6.2c6.4-3.3,13-6.8,26.2-6.8s19.7,3.4,26.2,6.8
	c6.1,3.2,12,6.2,23.8,6.2s17.7-3,23.8-6.2c6.4-3.3,13-6.8,26.2-6.8s19.7,3.4,26.2,6.8c6.1,3.2,12,6.2,23.8,6.2
	c5.7,0,10.1-0.7,13.7-1.8c0.9,1.5,1.8,2.9,2.9,4.3c-4.3,1.5-9.5,2.5-16.6,2.5c-13.1,0-19.7-3.4-26.2-6.8c-6.1-3.2-12-6.2-23.8-6.2
	s-17.7,3-23.8,6.2c-6.4,3.3-13,6.8-26.2,6.8s-19.7-3.4-26.2-6.8c-6.1-3.2-12-6.2-23.8-6.2s-17.7,3-23.8,6.2
	c-6.4,3.3-13,6.8-26.2,6.8S130.3,658.3,123.8,655z M123.8,720.2c-6.1-3.2-12-6.2-23.8-6.2v-5c13.1,0,19.7,3.4,26.2,6.8
	c6.1,3.2,12,6.2,23.8,6.2s17.7-3,23.8-6.2c6.4-3.3,13-6.8,26.2-6.8s19.7,3.4,26.2,6.8c6.1,3.2,12,6.2,23.8,6.2s17.7-3,23.8-6.2
	c6.4-3.3,13-6.8,26.2-6.8s19.7,3.4,26.2,6.8c6.1,3.2,12,6.2,23.8,6.2c11.8,0,17.6-3,23.8-6.2c-0.6,1.9-1,4-1,6.1
	c-5.5,2.7-11.9,5.1-22.8,5.1c-13.1,0-19.7-3.4-26.2-6.8c-6.1-3.2-12-6.2-23.8-6.2s-17.7,3-23.8,6.2c-6.4,3.3-13,6.8-26.2,6.8
	s-19.7-3.4-26.2-6.8c-6.1-3.2-12-6.2-23.8-6.2s-17.7,3-23.8,6.2c-6.4,3.3-13,6.8-26.2,6.8S130.3,723.5,123.8,720.2z M123.8,622.4
	c-6.1-3.2-12-6.2-23.8-6.2v-5c13.1,0,19.7,3.4,26.2,6.8c6.1,3.2,12,6.2,23.8,6.2s17.7-3,23.8-6.2c6.4-3.3,13-6.8,26.2-6.8
	s19.7,3.4,26.2,6.8c6.1,3.2,12,6.2,23.8,6.2s17.7-3,23.8-6.2c6.4-3.3,13-6.8,26.2-6.8s19.7,3.4,26.2,6.8c6.1,3.2,12,6.2,23.8,6.2
	c2.8,0,5.3-0.2,7.5-0.5v5c-2.2,0.3-4.7,0.4-7.5,0.4c-13.1,0-19.7-3.4-26.2-6.8c-6.1-3.2-12-6.2-23.8-6.2s-17.7,3-23.8,6.2
	c-6.4,3.3-13,6.8-26.2,6.8s-19.7-3.4-26.2-6.8c-6.1-3.2-12-6.2-23.8-6.2s-17.7,3-23.8,6.2c-6.4,3.3-13,6.8-26.2,6.8
	S130.3,625.7,123.8,622.4z M123.8,557.1c-6.1-3.2-12-6.2-23.8-6.2v-5c13.1,0,19.7,3.4,26.2,6.8c6.1,3.2,12,6.2,23.8,6.2
	s17.7-3,23.8-6.2c6.4-3.3,13-6.8,26.2-6.8s19.7,3.4,26.2,6.8c6.1,3.2,12,6.2,23.8,6.2s17.7-3,23.8-6.2c6.4-3.3,13-6.8,26.2-6.8
	s19.7,3.4,26.2,6.8c6.1,3.2,12,6.2,23.8,6.2c0.8,0,1.6,0,2.4,0c0.8,1.6,1.6,3.2,2.3,4.9c-1.4,0.1-3,0.2-4.6,0.2
	c-13.1,0-19.7-3.4-26.2-6.8c-6.1-3.2-12-6.2-23.8-6.2s-17.7,3-23.8,6.2c-6.4,3.3-13,6.8-26.2,6.8s-19.7-3.4-26.2-6.8
	c-6.1-3.2-12-6.2-23.8-6.2s-17.7,3-23.8,6.2c-6.4,3.3-13,6.8-26.2,6.8S130.3,560.5,123.8,557.1z M123.8,589.7
	c-6.1-3.2-12-6.2-23.8-6.2v-5c13.1,0,19.7,3.4,26.2,6.8c6.1,3.2,12,6.2,23.8,6.2s17.7-3,23.8-6.2c6.4-3.3,13-6.8,26.2-6.8
	s19.7,3.4,26.2,6.8c6.1,3.2,12,6.2,23.8,6.2s17.7-3,23.8-6.2c6.4-3.3,13-6.8,26.2-6.8s19.7,3.4,26.2,6.8c6.1,3.2,12,6.2,23.8,6.2
	c2.8,0,5.3-0.2,7.5-0.5v5c-2.2,0.3-4.7,0.4-7.5,0.4c-13.1,0-19.7-3.4-26.2-6.8c-6.1-3.2-12-6.2-23.8-6.2s-17.7,3-23.8,6.2
	c-6.4,3.3-13,6.8-26.2,6.8s-19.7-3.4-26.2-6.8c-6.1-3.2-12-6.2-23.8-6.2s-17.7,3-23.8,6.2c-6.4,3.3-13,6.8-26.2,6.8
	S130.3,593.1,123.8,589.7z M123.8,524.5c-6.1-3.2-12-6.2-23.8-6.2v-5c13.1,0,19.7,3.4,26.2,6.8c6.1,3.2,12,6.2,23.8,6.2
	s17.7-3,23.8-6.2c6.4-3.3,13-6.8,26.2-6.8s19.7,3.4,26.2,6.8c6.1,3.2,12,6.2,23.8,6.2s17.7-3,23.8-6.2c6.4-3.3,13-6.8,26.2-6.8
	c11.1,0,17.6,2.5,23.2,5.3c2.2,3,4.5,6,6.8,8.9c-2.2-0.9-4.2-2-6.1-3c-6.1-3.2-12-6.2-23.8-6.2s-17.7,3-23.8,6.2
	c-6.4,3.3-13,6.8-26.2,6.8s-19.7-3.4-26.2-6.8c-6.1-3.2-12-6.2-23.8-6.2s-17.7,3-23.8,6.2c-6.4,3.3-13,6.8-26.2,6.8
	S130.3,527.9,123.8,524.5z M383.1,749.5c-2.5,1-4.7,2.1-7,3.3c-6.4,3.3-13,6.8-26.2,6.8s-19.7-3.4-26.2-6.8
	c-6.1-3.2-12-6.2-23.8-6.2s-17.7,3-23.8,6.2c-6.4,3.3-13,6.8-26.2,6.8s-19.7-3.4-26.2-6.8c-6.1-3.2-12-6.2-23.8-6.2
	s-17.7,3-23.8,6.2c-6.4,3.3-13,6.8-26.2,6.8s-19.7-3.4-26.2-6.8c-6.1-3.2-12-6.2-23.8-6.2v-5c13.1,0,19.7,3.4,26.2,6.8
	c6.1,3.2,12,6.2,23.8,6.2s17.7-3,23.8-6.2c6.4-3.3,13-6.8,26.2-6.8s19.7,3.4,26.2,6.8c6.1,3.2,12,6.2,23.8,6.2s17.7-3,23.8-6.2
	c6.4-3.3,13-6.8,26.2-6.8s19.7,3.4,26.2,6.8c6.1,3.2,12,6.2,23.8,6.2s17.7-3,23.8-6.2c3.4-1.8,7-3.6,11.5-4.9
	C384.3,745.3,383.5,747.3,383.1,749.5z M873.8,585.3c6.4-3.3,13-6.8,26.2-6.8v5c-11.9,0-17.7,3-23.8,6.2c-6.4,3.3-13,6.8-26.2,6.8
	s-19.7-3.4-26.2-6.8c-6.1-3.2-12-6.2-23.8-6.2s-17.7,3-23.8,6.2c-6.4,3.3-13,6.8-26.2,6.8s-19.7-3.4-26.2-6.8
	c-6.1-3.2-12-6.2-23.8-6.2s-17.7,3-23.8,6.2c-6.4,3.3-13,6.8-26.2,6.8s-19.7-3.4-26.2-6.8c-6.1-3.2-12-6.2-23.8-6.2
	s-17.7,3-23.8,6.2c-6.4,3.3-13,6.8-26.2,6.8c-5,0-9-0.5-12.5-1.3v-5.2c3.4,0.9,7.4,1.4,12.5,1.4c11.9,0,17.7-3,23.8-6.2
	c6.4-3.3,13-6.8,26.2-6.8s19.7,3.4,26.2,6.8c6.1,3.2,12,6.2,23.8,6.2s17.7-3,23.8-6.2c6.4-3.3,13-6.8,26.2-6.8s19.7,3.4,26.2,6.8
	c6.1,3.2,12,6.2,23.8,6.2s17.7-3,23.8-6.2c6.4-3.3,13-6.8,26.2-6.8s19.7,3.4,26.2,6.8c6.1,3.2,12,6.2,23.8,6.2
	S867.7,588.5,873.8,585.3z M873.8,552.7c6.4-3.3,13-6.8,26.2-6.8v5c-11.9,0-17.7,3-23.8,6.2c-6.4,3.3-13,6.8-26.2,6.8
	s-19.7-3.4-26.2-6.8c-6.1-3.2-12-6.2-23.8-6.2s-17.7,3-23.8,6.2c-6.4,3.3-13,6.8-26.2,6.8s-19.7-3.4-26.2-6.8
	c-6.1-3.2-12-6.2-23.8-6.2s-17.7,3-23.8,6.2c-6.4,3.3-13,6.8-26.2,6.8s-19.7-3.4-26.2-6.8c-6.1-3.2-12-6.2-23.8-6.2
	s-17.7,3-23.8,6.2c-6.4,3.3-13,6.8-26.2,6.8c-3.5,0-6.6-0.3-9.3-0.7c0.7-1.6,1.4-3.2,2.2-4.7c2.1,0.3,4.4,0.4,7.1,0.4
	c11.9,0,17.7-3,23.8-6.2c6.4-3.3,13-6.8,26.2-6.8s19.7,3.4,26.2,6.8c6.1,3.2,12,6.2,23.8,6.2s17.7-3,23.8-6.2
	c6.4-3.3,13-6.8,26.2-6.8s19.7,3.4,26.2,6.8c6.1,3.2,12,6.2,23.8,6.2s17.7-3,23.8-6.2c6.4-3.3,13-6.8,26.2-6.8s19.7,3.4,26.2,6.8
	c6.1,3.2,12,6.2,23.8,6.2S867.7,555.9,873.8,552.7z M873.8,617.9c6.4-3.3,13-6.8,26.2-6.8v5c-11.9,0-17.7,3-23.8,6.2
	c-6.4,3.3-13,6.8-26.2,6.8s-19.7-3.4-26.2-6.8c-6.1-3.2-12-6.2-23.8-6.2s-17.7,3-23.8,6.2c-6.4,3.3-13,6.8-26.2,6.8
	s-19.7-3.4-26.2-6.8c-6.1-3.2-12-6.2-23.8-6.2s-17.7,3-23.8,6.2c-6.4,3.3-13,6.8-26.2,6.8s-19.7-3.4-26.2-6.8
	c-6.1-3.2-12-6.2-23.8-6.2s-17.7,3-23.8,6.2c-6.4,3.3-13,6.8-26.2,6.8c-5,0-9-0.5-12.5-1.3v-5.2c3.4,0.9,7.4,1.4,12.5,1.4
	c11.9,0,17.7-3,23.8-6.2c6.4-3.3,13-6.8,26.2-6.8s19.7,3.4,26.2,6.8c6.1,3.2,12,6.2,23.8,6.2s17.7-3,23.8-6.2
	c6.4-3.3,13-6.8,26.2-6.8s19.7,3.4,26.2,6.8c6.1,3.2,12,6.2,23.8,6.2s17.7-3,23.8-6.2c6.4-3.3,13-6.8,26.2-6.8s19.7,3.4,26.2,6.8
	c6.1,3.2,12,6.2,23.8,6.2S867.7,621.1,873.8,617.9z M873.8,748.4c6.4-3.3,13-6.8,26.2-6.8v5c-11.9,0-17.7,3-23.8,6.2
	c-6.4,3.3-13,6.8-26.2,6.8s-19.7-3.4-26.2-6.8c-6.1-3.2-12-6.2-23.8-6.2s-17.7,3-23.8,6.2c-6.4,3.3-13,6.8-26.2,6.8
	s-19.7-3.4-26.2-6.8c-6.1-3.2-12-6.2-23.8-6.2s-17.7,3-23.8,6.2c-6.4,3.3-13,6.8-26.2,6.8s-19.7-3.4-26.2-6.8
	c-6.1-3.2-12-6.2-23.8-6.2s-17.7,3-23.8,6.2c-6.4,3.3-13,6.8-26.2,6.8s-19.7-3.4-26.2-6.8c-3.6-1.9-7.1-3.7-11.8-4.9
	c-0.6-2-1.4-3.9-2.6-5.6c7.3,1.2,12.1,3.7,16.7,6.1c6.1,3.2,12,6.2,23.8,6.2s17.7-3,23.8-6.2c6.4-3.3,13-6.8,26.2-6.8
	s19.7,3.4,26.2,6.8c6.1,3.2,12,6.2,23.8,6.2s17.7-3,23.8-6.2c6.4-3.3,13-6.8,26.2-6.8s19.7,3.4,26.2,6.8c6.1,3.2,12,6.2,23.8,6.2
	s17.7-3,23.8-6.2c6.4-3.3,13-6.8,26.2-6.8s19.7,3.4,26.2,6.8c6.1,3.2,12,6.2,23.8,6.2S867.7,751.6,873.8,748.4z M900,513.3v5
	c-11.9,0-17.7,3-23.8,6.2c-6.4,3.3-13,6.8-26.2,6.8s-19.7-3.4-26.2-6.8c-6.1-3.2-12-6.2-23.8-6.2s-17.7,3-23.8,6.2
	c-6.4,3.3-13,6.8-26.2,6.8s-19.7-3.4-26.2-6.8c-6.1-3.2-12-6.2-23.8-6.2s-17.7,3-23.8,6.2c-6.4,3.3-13,6.8-26.2,6.8
	s-19.7-3.4-26.2-6.8c-6.1-3.2-12-6.2-23.8-6.2s-17.7,3-23.8,6.2c-3.8,2-7.7,4-12.9,5.3c1.8-2.4,3.7-4.8,5.5-7.2
	c1.8-0.8,3.4-1.6,5.1-2.5c6.4-3.3,13-6.8,26.2-6.8s19.7,3.4,26.2,6.8c6.1,3.2,12,6.2,23.8,6.2s17.7-3,23.8-6.2
	c6.4-3.3,13-6.8,26.2-6.8s19.7,3.4,26.2,6.8c6.1,3.2,12,6.2,23.8,6.2s17.7-3,23.8-6.2c6.4-3.3,13-6.8,26.2-6.8s19.7,3.4,26.2,6.8
	c6.1,3.2,12,6.2,23.8,6.2s17.7-3,23.8-6.2C880.3,516.7,886.9,513.3,900,513.3z M873.8,715.8c6.4-3.3,13-6.8,26.2-6.8v5
	c-11.9,0-17.7,3-23.8,6.2c-6.4,3.3-13,6.8-26.2,6.8s-19.7-3.4-26.2-6.8c-6.1-3.2-12-6.2-23.8-6.2s-17.7,3-23.8,6.2
	c-6.4,3.3-13,6.8-26.2,6.8s-19.7-3.4-26.2-6.8c-6.1-3.2-12-6.2-23.8-6.2s-17.7,3-23.8,6.2c-6.4,3.3-13,6.8-26.2,6.8
	s-19.7-3.4-26.2-6.8c-6.1-3.2-12-6.2-23.8-6.2s-17.7,3-23.8,6.2c-6.4,3.3-13,6.8-26.2,6.8s-19.7-3.4-26.2-6.8
	c-0.4-0.2-0.8-0.4-1.3-0.7c-0.3-2.3-1-4.5-2-6.5c2,0.9,3.8,1.8,5.6,2.7c6.1,3.2,12,6.2,23.8,6.2s17.7-3,23.8-6.2
	c6.4-3.3,13-6.8,26.2-6.8s19.7,3.4,26.2,6.8c6.1,3.2,12,6.2,23.8,6.2s17.7-3,23.8-6.2c6.4-3.3,13-6.8,26.2-6.8s19.7,3.4,26.2,6.8
	c6.1,3.2,12,6.2,23.8,6.2s17.7-3,23.8-6.2c6.4-3.3,13-6.8,26.2-6.8s19.7,3.4,26.2,6.8c6.1,3.2,12,6.2,23.8,6.2
	S867.7,718.9,873.8,715.8z M873.8,650.5c6.4-3.3,13-6.8,26.2-6.8v5c-11.9,0-17.7,3-23.8,6.2c-6.4,3.3-13,6.8-26.2,6.8
	s-19.7-3.4-26.2-6.8c-6.1-3.2-12-6.2-23.8-6.2s-17.7,3-23.8,6.2c-6.4,3.3-13,6.8-26.2,6.8s-19.7-3.4-26.2-6.8
	c-6.1-3.2-12-6.2-23.8-6.2s-17.7,3-23.8,6.2c-6.4,3.3-13,6.8-26.2,6.8s-19.7-3.4-26.2-6.8c-6.1-3.2-12-6.2-23.8-6.2
	s-17.7,3-23.8,6.2c-6.4,3.3-13,6.8-26.2,6.8c-9.4,0-15.4-1.8-20.5-4c1-1.4,1.8-2.8,2.6-4.3c4.5,1.9,9.8,3.3,17.8,3.3
	c11.9,0,17.7-3,23.8-6.2c6.4-3.3,13-6.8,26.2-6.8s19.7,3.4,26.2,6.8c6.1,3.2,12,6.2,23.8,6.2s17.7-3,23.8-6.2
	c6.4-3.3,13-6.8,26.2-6.8s19.7,3.4,26.2,6.8c6.1,3.2,12,6.2,23.8,6.2s17.7-3,23.8-6.2c6.4-3.3,13-6.8,26.2-6.8s19.7,3.4,26.2,6.8
	c6.1,3.2,12,6.2,23.8,6.2S867.7,653.7,873.8,650.5z M873.8,683.1c6.4-3.3,13-6.8,26.2-6.8v5c-11.9,0-17.7,3-23.8,6.2
	c-6.4,3.3-13,6.8-26.2,6.8s-19.7-3.4-26.2-6.8c-6.1-3.2-12-6.2-23.8-6.2s-17.7,3-23.8,6.2c-6.4,3.3-13,6.8-26.2,6.8
	s-19.7-3.4-26.2-6.8c-6.1-3.2-12-6.2-23.8-6.2s-17.7,3-23.8,6.2c-6.4,3.3-13,6.8-26.2,6.8s-19.7-3.4-26.2-6.8
	c-6.1-3.2-12-6.2-23.8-6.2s-17.7,3-23.8,6.2c-6.4,3.3-13,6.8-26.2,6.8s-19.7-3.4-26.2-6.8c-0.5-0.3-1-0.5-1.5-0.8
	c-0.5-2.5-1.5-4.8-2.9-6.9c2.4,1,4.5,2.1,6.7,3.2c6.1,3.2,12,6.2,23.8,6.2s17.7-3,23.8-6.2c6.4-3.3,13-6.8,26.2-6.8
	s19.7,3.4,26.2,6.8c6.1,3.2,12,6.2,23.8,6.2s17.7-3,23.8-6.2c6.4-3.3,13-6.8,26.2-6.8s19.7,3.4,26.2,6.8c6.1,3.2,12,6.2,23.8,6.2
	s17.7-3,23.8-6.2c6.4-3.3,13-6.8,26.2-6.8s19.7,3.4,26.2,6.8c6.1,3.2,12,6.2,23.8,6.2S867.7,686.3,873.8,683.1z" />
	<g>
		<path class="st0" d="M606.1,410.3c0-85.7-68.1-155.5-153.1-158.2c-89.9-2.9-164.7,70.3-163.6,160.2c0.6,47.9,29.4,84,56.6,119.3
		c10.9,14.1,21.7,28.1,21.7,45.9c0,14.2,0,54.5,0,54.5c0,19.6,16,35.6,35.6,35.6h89c19.6,0,35.6-16,35.6-35.6c0,0,0-39.9,0-54.2
		c0-17.9,10.9-32.1,21.8-46.2C577.1,495.8,606.1,459,606.1,410.3z" />
		<path class="st0" d="M446.3,292.9c0,0,73.6-1.4,114.5,80.4" />
		<line class="st0" x1="756.1" y1="407.3" x2="656.1" y2="407.3" />
		<line class="st0" x1="447.8" y1="102" x2="447.8" y2="202" />
		<line class="st0" x1="239.4" y1="407.3" x2="139.4" y2="407.3" />
		<line class="st0" x1="693.5" y1="199.3" x2="622.7" y2="270" />
		<line class="st0" x1="268" y1="270" x2="197.2" y2="199.3" />
		<path class="st0" d="M502.8,700.8h-110c-5.5,0-10-4.5-10-10l0,0c0-5.5,4.5-10,10-10h110c5.5,0,10,4.5,10,10l0,0
		C512.8,696.3,508.3,700.8,502.8,700.8z" />
		<path class="st0" d="M502.8,732h-110c-5.5,0-10-4.5-10-10l0,0c0-5.5,4.5-10,10-10h110c5.5,0,10,4.5,10,10l0,0
		C512.8,727.5,508.3,732,502.8,732z" />
		<path class="st0" d="M492.8,763.3h-90c-5.5,0-10-4.5-10-10v0c0-5.5,4.5-10,10-10h90c5.5,0,10,4.5,10,10v0
		C502.8,758.8,498.3,763.3,492.8,763.3z" />
	</g>
</svg>
